<?xml version="1.0" encoding="UTF-8"?>
<svg width="752px" height="752px" viewBox="0 0 752 752" xmlns="http://www.w3.org/2000/svg">
    <defs>
        <clipPath id="a">
            <path d="m142 168h470.79v431h-470.79z"/>
        </clipPath>
    </defs>
    <g clip-path="url(#a)">
        <path d="m604 524.75c-0.30859-0.28516-0.64453-0.43359-0.92188-0.67969l-85.438-83.969-21.555-21.176c22.027-48.477 22.141-106.3-4.7969-156.8-46.004-86.152-153.52-118.85-239.67-72.879-1.8203 0.96484-3.5391 2.0586-5.3164 3.0977-27.781 16.078-49.695 38.637-64.719 64.805-9.9844-5.125-17.215-9.5703-18.254-10.234 0.98047 0.63672 0.3125 0.03125-0.91797-0.84375-0.88672-0.74219-1.8945-1.3203-2.9922-1.8086-0.41406-0.21094-0.85937-0.38672-1.2148-0.50781-0.94922-0.29688-1.9258-0.41406-2.875-0.44141-0.23438-0.03125-0.41406-0.015625-0.68359-0.015625-0.82812 0.015625-1.6562 0.10156-2.4609 0.28125-0.089844 0.03125-0.17578 0.03125-0.26563 0.058594-3.8789 0.96484-7.1992 3.8516-8.457 8-0.48828 1.5273-0.57812 3.082-0.44141 4.5938 0 0-0.046875 0.046875-0.015625 0.058593v0.03125c0.03125 1.332 0.17578 2.7539 0.53125 4.2656l15.398 66.207 4.8125 20.785 4.2812 18.344 1.375 5.8945c2.8164 12.242 12.652 15.23 21.84 6.6406l20.504-19.156 5.8086-5.4531 13.359-12.488 41.07-38.418 2.6523-2.4766c0.3125-0.29688 0.51953-0.59375 0.78516-0.88672l1.7227-1.6914-0.12109-0.03125c1.0703-1.2148 1.9883-2.6055 2.4883-4.2383 0.13672-0.42969 0.17969-0.85938 0.26563-1.2734 0.79687-3.1719 0.17578-6.1914-1.8086-8.7383-1.4648-2.1797-3.6133-3.9102-6.3125-4.7266 0 0-15.969 1.1094-38.934-3.4844 5.3047-7.7305 11.496-14.902 18.547-21.379 7.4961-6.8594 15.941-12.934 25.305-17.926 17.574-9.3633 36.387-14.047 55.027-14.52 45.484-1.168 89.988 22.754 112.84 65.559 28.918 54.223 13.363 120.48-33.867 156.73-1.6406 1.2461-3.2891 2.4766-4.9766 3.6484-0.65234 0.44141-1.3047 0.88672-1.9531 1.3203-0.41406 0.29688-0.85938 0.5625-1.3047 0.84375-2.2227 1.4414-4.5352 2.7539-6.875 4.0742-33.93 18.715-76.121 21.363-113.66 3.3516-4.8906-2.3594-9.543-5.0391-13.984-7.9414-1.2734-0.83203-2.5664-1.6875-3.8203-2.5781-0.91797-0.29688-1.8672-0.50781-2.8906-0.50781-1.6758 0.03125-3.2148 0.51953-4.5312 1.332l-1.707 1.3516-27.141 21.156-3.1094 2.4141c-1.2734 1.5391-2.0469 3.4844-2.0469 5.6484 0.03125 1.8203 0.59375 3.5117 1.5391 4.918 1.332 1.082 2.6953 2.1641 4.0625 3.2148 9.3906 7.1875 19.613 13.539 30.68 18.844 39.133 18.789 81.77 21.82 120.82 11.734 0.11719 0 0.23438 0.058594 0.38672 0.058594 1.6562-0.44531 3.3359-0.88672 4.9805-1.3594 11.348-3.3203 22.52-7.7969 33.363-13.574 4.3672-2.3398 8.5625-4.875 12.68-7.5234 0.5625-0.35547 1.1445-0.70703 1.707-1.082 1.1992-0.78516 2.3555-1.6172 3.5391-2.4141 0.41406-0.29297 0.80859-0.58594 1.2188-0.87109l18.152 17.879 82.734 81.254c0.18359 0.1875 0.33594 0.50391 0.52344 0.70703 14.156 14.098 40.109 10.973 58.012-7 17.965-17.945 21.094-43.945 7.0312-58.012z"/>
    </g>
</svg>
